<svg width="132" height="46" viewBox="0 0 132 46" fill="none" xmlns="http://www.w3.org/2000/svg">
<path d="M60.0481 10.9231L65.9976 29.625H66.226L72.1875 10.9231H77.9567L69.4712 35.5385H62.7644L54.2668 10.9231H60.0481ZM87.1545 35.899C85.2554 35.899 83.6208 35.5144 82.2506 34.7452C80.8884 33.9679 79.8387 32.8702 79.1016 31.4519C78.3644 30.0256 77.9958 28.3389 77.9958 26.3918C77.9958 24.4928 78.3644 22.8261 79.1016 21.3918C79.8387 19.9575 80.8764 18.8397 82.2146 18.0385C83.5607 17.2372 85.1392 16.8365 86.9501 16.8365C88.1681 16.8365 89.3019 17.0328 90.3516 17.4255C91.4093 17.8101 92.3307 18.391 93.116 19.1683C93.9093 19.9455 94.5262 20.9231 94.967 22.101C95.4077 23.2708 95.628 24.641 95.628 26.2115V27.6178H80.0391V24.4447H90.8083C90.8083 23.7075 90.648 23.0545 90.3275 22.4856C90.007 21.9167 89.5623 21.4719 88.9934 21.1514C88.4325 20.8229 87.7795 20.6586 87.0343 20.6586C86.257 20.6586 85.5679 20.8389 84.967 21.1995C84.374 21.5521 83.9093 22.0288 83.5727 22.6298C83.2362 23.2227 83.0639 23.8838 83.0559 24.613V27.6298C83.0559 28.5433 83.2242 29.3325 83.5607 29.9976C83.9053 30.6627 84.39 31.1755 85.015 31.536C85.64 31.8966 86.3812 32.0769 87.2386 32.0769C87.8075 32.0769 88.3283 31.9968 88.8011 31.8365C89.2738 31.6763 89.6785 31.4359 90.015 31.1154C90.3516 30.7949 90.608 30.4022 90.7843 29.9375L95.5198 30.25C95.2795 31.3878 94.7867 32.3814 94.0415 33.2308C93.3043 34.0721 92.3508 34.7292 91.1809 35.2019C90.019 35.6667 88.6769 35.899 87.1545 35.899ZM98.9694 35.5385V17.0769H103.933V20.2981H104.126C104.462 19.1522 105.027 18.2869 105.82 17.7019C106.614 17.109 107.527 16.8125 108.561 16.8125C108.817 16.8125 109.094 16.8285 109.39 16.8606C109.687 16.8926 109.947 16.9367 110.171 16.9928V21.536C109.931 21.4639 109.598 21.3998 109.174 21.3437C108.749 21.2877 108.36 21.2596 108.008 21.2596C107.255 21.2596 106.582 21.4239 105.989 21.7524C105.404 22.0729 104.939 22.5216 104.594 23.0985C104.258 23.6755 104.09 24.3405 104.09 25.0937V35.5385H98.9694ZM120.3 35.899C118.433 35.899 116.819 35.5024 115.457 34.7091C114.103 33.9078 113.057 32.7941 112.32 31.3678C111.583 29.9335 111.214 28.2708 111.214 26.3798C111.214 24.4727 111.583 22.8061 112.32 21.3798C113.057 19.9455 114.103 18.8317 115.457 18.0385C116.819 17.2372 118.433 16.8365 120.3 16.8365C122.167 16.8365 123.778 17.2372 125.132 18.0385C126.494 18.8317 127.544 19.9455 128.281 21.3798C129.018 22.8061 129.387 24.4727 129.387 26.3798C129.387 28.2708 129.018 29.9335 128.281 31.3678C127.544 32.7941 126.494 33.9078 125.132 34.7091C123.778 35.5024 122.167 35.899 120.3 35.899ZM120.325 31.9327C121.174 31.9327 121.883 31.6923 122.452 31.2115C123.021 30.7227 123.45 30.0577 123.738 29.2163C124.034 28.375 124.183 27.4175 124.183 26.3437C124.183 25.27 124.034 24.3125 123.738 23.4711C123.45 22.6298 123.021 21.9647 122.452 21.476C121.883 20.9872 121.174 20.7428 120.325 20.7428C119.467 20.7428 118.746 20.9872 118.161 21.476C117.584 21.9647 117.147 22.6298 116.851 23.4711C116.563 24.3125 116.418 25.27 116.418 26.3437C116.418 27.4175 116.563 28.375 116.851 29.2163C117.147 30.0577 117.584 30.7227 118.161 31.2115C118.746 31.6923 119.467 31.9327 120.325 31.9327Z" fill="black"/>
<circle cx="23.7674" cy="22.7674" r="22.7674" fill="#F3A83B"/>
<path d="M1.84613 35.5385L18.7692 21.5769L26.3846 32.1539L46.6923 12.6923" stroke="white" stroke-width="2.11538" stroke-linecap="round" stroke-linejoin="round"/>
</svg>
